#Comment line ignore any data following # character 
#Hierarchical Translation and Rotation (.htr) file 
[Header]	
#Header keywords are followed by a single value 
FileType HTR		#Single word string
DataType HTRS		#Translation followed by rotation and scale data
FileVersion 1		#integer
NumSegments 64		#integer
NumFrames 3		#integer
DataFrameRate 30		#integer, data frame rate in this file
EulerRotationOrder ZYX
CalibrationUnits mm
RotationUnits Degrees
GlobalAxisofGravity Y
BoneLengthAxis Y
ScaleFactor 1.00
[SegmentNames&Hierarchy]
#CHILD	PARENT
Pinger_Root GLOBAL
Pelvis Pinger_Root
L_Hip Pelvis
R_Hip Pelvis
Rear_Leg01 Pelvis
Spine1 Pelvis
L_Leg01 L_Hip
L_Leg02 L_Leg01
L_Leg03 L_Leg02
L_Foot L_Leg03
L_Toe1_01 L_Foot
L_Toe2_01 L_Foot
L_Toe3_01 L_Foot
planeAlignerLeft L_Foot
L_Toe1_02 L_Toe1_01
L_Toe1_03 L_Toe1_02
L_Toe2_02 L_Toe2_01
L_Toe2_03 L_Toe2_02
L_Toe3_02 L_Toe3_01
L_Toe3_03 L_Toe3_02
planeLockWeightLeft planeAlignerLeft
R_Leg01 R_Hip
R_Leg02 R_Leg01
R_Leg03 R_Leg02
R_Foot R_Leg03
planeAlignerRight R_Foot
R_Toe1_01 R_Foot
R_Toe2_01 R_Foot
R_Toe3_01 R_Foot
planeLockWeightRight planeAlignerRight
R_Toe1_02 R_Toe1_01
R_Toe1_03 R_Toe1_02
R_Toe2_02 R_Toe2_01
R_Toe2_03 R_Toe2_02
R_Toe3_02 R_Toe3_01
R_Toe3_03 R_Toe3_02
Rear_Leg02 Rear_Leg01
Rear_Leg03 Rear_Leg02
Rear_Leg04 Rear_Leg03
Rear_Foot Rear_Leg04
planeAlignerCenter Rear_Foot
Rear_Toe1_01 Rear_Foot
Rear_Toe2_01 Rear_Foot
Rear_Toe3_01 Rear_Foot
planeLockWeightCenter planeAlignerCenter
Rear_Toe1_02 Rear_Toe1_01
Rear_Toe1_03 Rear_Toe1_02
Rear_Toe2_02 Rear_Toe2_01
Rear_Toe2_03 Rear_Toe2_02
Rear_Toe3_02 Rear_Toe3_01
Rear_Toe3_03 Rear_Toe3_02
Back_Bone Spine1
Head Spine1
Motor_Bone Back_Bone
Ping_Mechanism Back_Bone
BN_LookIK Head
bottomMouth Head
L_Mouth01 Head
L_mouthFront Head
mouthGun Head
R_Mouth01 Head
R_mouthFront Head
TopMouth Head
weapon_bone Head
[BasePosition]
#SegmentName Tx, Ty, Tz, Rx, Ry, Rz, BoneLength
Pinger_Root 0.000000 0.000000 0.000000 -90.000000 0.000000 0.000000 10.000000 
Pelvis 0.000000 0.000000 0.000000 0.000000 0.000000 0.000000 10.000000 
L_Hip 0.000000 0.000000 0.000000 0.000000 0.000000 0.000000 10.000000 
R_Hip 0.000000 0.000000 0.000000 0.000000 0.000000 0.000000 10.000000 
Rear_Leg01 0.000000 0.000000 0.000000 0.000000 0.000000 0.000000 10.000000 
Spine1 0.000000 0.000000 0.000000 0.000000 0.000000 0.000000 10.000000 
L_Leg01 0.000000 0.000000 0.000000 0.000000 0.000000 0.000000 10.000000 
L_Leg02 0.000000 0.000000 0.000000 0.000000 0.000000 0.000000 10.000000 
L_Leg03 0.000000 0.000000 0.000000 0.000000 0.000000 0.000000 10.000000 
L_Foot 0.000000 0.000000 0.000000 0.000000 0.000000 0.000000 10.000000 
L_Toe1_01 0.000000 0.000000 0.000000 0.000000 0.000000 0.000000 10.000000 
L_Toe2_01 0.000000 0.000000 0.000000 0.000000 0.000000 0.000000 10.000000 
L_Toe3_01 0.000000 0.000000 0.000000 0.000000 0.000000 0.000000 10.000000 
planeAlignerLeft 0.000000 0.000000 0.000000 0.000000 0.000000 0.000000 10.000000 
L_Toe1_02 0.000000 0.000000 0.000000 0.000000 0.000000 0.000000 10.000000 
L_Toe1_03 0.000000 0.000000 0.000000 0.000000 0.000000 0.000000 10.000000 
L_Toe2_02 0.000000 0.000000 0.000000 0.000000 0.000000 0.000000 10.000000 
L_Toe2_03 0.000000 0.000000 0.000000 0.000000 0.000000 0.000000 10.000000 
L_Toe3_02 0.000000 0.000000 0.000000 0.000000 0.000000 0.000000 10.000000 
L_Toe3_03 0.000000 0.000000 0.000000 0.000000 0.000000 0.000000 10.000000 
planeLockWeightLeft 0.000000 0.000000 0.000000 0.000000 0.000000 0.000000 10.000000 
R_Leg01 0.000000 0.000000 0.000000 0.000000 0.000000 0.000000 10.000000 
R_Leg02 0.000000 0.000000 0.000000 0.000000 0.000000 0.000000 10.000000 
R_Leg03 0.000000 0.000000 0.000000 0.000000 0.000000 0.000000 10.000000 
R_Foot 0.000000 0.000000 0.000000 0.000000 0.000000 0.000000 10.000000 
planeAlignerRight 0.000000 0.000000 0.000000 0.000000 0.000000 0.000000 10.000000 
R_Toe1_01 0.000000 0.000000 0.000000 0.000000 0.000000 0.000000 10.000000 
R_Toe2_01 0.000000 0.000000 0.000000 0.000000 0.000000 0.000000 10.000000 
R_Toe3_01 0.000000 0.000000 0.000000 0.000000 0.000000 0.000000 10.000000 
planeLockWeightRight 0.000000 0.000000 0.000000 0.000000 0.000000 0.000000 10.000000 
R_Toe1_02 0.000000 0.000000 0.000000 0.000000 0.000000 0.000000 10.000000 
R_Toe1_03 0.000000 0.000000 0.000000 0.000000 0.000000 0.000000 10.000000 
R_Toe2_02 0.000000 0.000000 0.000000 0.000000 0.000000 0.000000 10.000000 
R_Toe2_03 0.000000 0.000000 0.000000 0.000000 0.000000 0.000000 10.000000 
R_Toe3_02 0.000000 0.000000 0.000000 0.000000 0.000000 0.000000 10.000000 
R_Toe3_03 0.000000 0.000000 0.000000 0.000000 0.000000 0.000000 10.000000 
Rear_Leg02 0.000000 0.000000 0.000000 0.000000 0.000000 0.000000 10.000000 
Rear_Leg03 0.000000 0.000000 0.000000 0.000000 0.000000 0.000000 10.000000 
Rear_Leg04 0.000000 0.000000 0.000000 0.000000 0.000000 0.000000 10.000000 
Rear_Foot 0.000000 0.000000 0.000000 0.000000 0.000000 0.000000 10.000000 
planeAlignerCenter 0.000000 0.000000 0.000000 0.000000 0.000000 0.000000 10.000000 
Rear_Toe1_01 0.000000 0.000000 0.000000 0.000000 0.000000 0.000000 10.000000 
Rear_Toe2_01 0.000000 0.000000 0.000000 0.000000 0.000000 0.000000 10.000000 
Rear_Toe3_01 0.000000 0.000000 0.000000 0.000000 0.000000 0.000000 10.000000 
planeLockWeightCenter 0.000000 0.000000 0.000000 0.000000 0.000000 0.000000 10.000000 
Rear_Toe1_02 0.000000 0.000000 0.000000 0.000000 0.000000 0.000000 10.000000 
Rear_Toe1_03 0.000000 0.000000 0.000000 0.000000 0.000000 0.000000 10.000000 
Rear_Toe2_02 0.000000 0.000000 0.000000 0.000000 0.000000 0.000000 10.000000 
Rear_Toe2_03 0.000000 0.000000 0.000000 0.000000 0.000000 0.000000 10.000000 
Rear_Toe3_02 0.000000 0.000000 0.000000 0.000000 0.000000 0.000000 10.000000 
Rear_Toe3_03 0.000000 0.000000 0.000000 0.000000 0.000000 0.000000 10.000000 
Back_Bone 0.000000 0.000000 0.000000 0.000000 0.000000 0.000000 10.000000 
Head 0.000000 0.000000 0.000000 0.000000 0.000000 0.000000 10.000000 
Motor_Bone 0.000000 0.000000 0.000000 0.000000 0.000000 0.000000 10.000000 
Ping_Mechanism 0.000000 0.000000 0.000000 0.000000 0.000000 0.000000 10.000000 
BN_LookIK 0.000000 0.000000 0.000000 0.000000 0.000000 0.000000 10.000000 
bottomMouth 0.000000 0.000000 0.000000 0.000000 0.000000 0.000000 10.000000 
L_Mouth01 0.000000 0.000000 0.000000 0.000000 0.000000 0.000000 10.000000 
L_mouthFront 0.000000 0.000000 0.000000 0.000000 0.000000 0.000000 10.000000 
mouthGun 0.000000 0.000000 0.000000 0.000000 0.000000 0.000000 10.000000 
R_Mouth01 0.000000 0.000000 0.000000 0.000000 0.000000 0.000000 10.000000 
R_mouthFront 0.000000 0.000000 0.000000 0.000000 0.000000 0.000000 10.000000 
TopMouth 0.000000 0.000000 0.000000 0.000000 0.000000 0.000000 10.000000 
weapon_bone 0.000000 0.000000 0.000000 0.000000 0.000000 0.000000 10.000000 
#Beginning of Data. Separated by tabs
#Fr	Tx	Ty	Tz	Rx	Ry	Rz	SF
[Pinger_Root]
40 0.000000 0.000000 0.000000 -0.000075 -0.000000 -0.000020 0.000000
41 0.000000 0.000000 0.000000 -0.000075 -0.000000 -0.000020 0.000000
42 0.000000 0.000000 0.000000 -0.000075 -0.000000 -0.000020 0.000000
[Pelvis]
40 146.652466 531.302490 3842.197021 -5.327951 -81.952217 4.152319 3881.528809
41 206.572083 654.677063 3919.720459 7.436967 -79.945328 -7.933134 3979.382324
42 264.439331 770.387329 3997.243652 15.899955 -77.873222 -16.124493 4079.385010
[L_Hip]
40 5.766392 125.831482 872.656799 169.019897 -53.600594 109.550522 881.701050
41 5.766392 125.831482 872.656799 164.346695 -51.599117 115.566910 881.701050
42 5.766392 125.831482 872.656799 160.516327 -49.471989 120.758224 881.701050
[R_Hip]
40 5.765438 125.836372 -872.654907 159.350998 80.327644 -121.309189 881.699829
41 5.765438 125.836372 -872.654907 149.006485 79.908760 -131.267258 881.699829
42 5.765438 125.836372 -872.654907 137.549164 79.764069 -142.319916 881.699829
[Rear_Leg01]
40 -192.298416 -925.602966 -0.001907 136.058075 -1.358300 -125.223091 945.367432
41 -192.298416 -925.602966 -0.001907 137.877106 -1.453975 -123.035255 945.367432
42 -192.298416 -925.602966 -0.001907 139.577911 -2.057184 -121.340523 945.367432
[Spine1]
40 290.604584 5.007505 0.000477 -0.667099 -6.182189 23.479832 290.647736
41 290.604584 5.007505 0.000477 -2.166257 -7.176663 25.553043 290.647736
42 290.604584 5.007505 0.000477 -3.223674 -8.109261 27.573948 290.647736
[L_Leg01]
40 761.932007 -0.002384 -0.069261 34.371296 -35.475777 -26.328560 761.932068
41 761.932007 -0.002384 -0.069261 36.326160 -33.443485 -27.471182 761.932068
42 761.932007 -0.002384 -0.069261 36.615021 -32.301476 -26.317451 761.932068
[L_Leg02]
40 1441.140503 -0.000954 -0.000715 -0.803860 0.214863 -107.308990 1441.140503
41 1441.140503 -0.000954 -0.000715 -1.023631 0.285076 -105.536087 1441.140503
42 1441.140503 -0.000954 -0.000715 -1.196929 0.382561 -105.778091 1441.140503
[L_Leg03]
40 1686.963989 -0.000715 -0.000954 0.009225 -0.001463 108.022308 1686.963989
41 1686.963989 -0.000715 -0.000954 0.012184 -0.005345 106.899757 1686.963989
42 1686.963989 -0.000715 -0.000954 0.019225 -0.005990 104.610954 1686.963989
[L_Foot]
40 3041.570068 -30.715107 11.297464 -4.313637 3.473139 38.035309 3041.746094
41 3041.570068 -30.715107 11.297464 -4.878156 3.358346 39.800495 3041.746094
42 3041.570068 -30.715107 11.297464 -5.374329 3.094854 42.556297 3041.746094
[L_Toe1_01]
40 -188.216690 -224.732346 -21.137953 94.280670 -28.131250 179.902283 293.899567
41 -188.216690 -224.732346 -21.137953 94.280670 -28.131254 179.902283 293.899567
42 -188.216690 -224.732346 -21.137953 94.280670 -28.131250 179.902283 293.899567
[L_Toe2_01]
40 200.746536 -219.926590 148.838394 -108.981209 -14.926117 -28.372448 332.896027
41 200.746536 -219.926590 148.838394 -108.981201 -14.926042 -28.372547 332.896027
42 200.746536 -219.926590 148.838394 -108.981194 -14.925972 -28.372646 332.896027
[L_Toe3_01]
40 188.832520 -219.859131 -191.078659 -119.528816 36.514473 -78.862709 347.140900
41 188.832520 -219.859131 -191.078659 -119.528816 36.514465 -78.862701 347.140900
42 188.832520 -219.859131 -191.078659 -119.528816 36.514465 -78.862701 347.140900
[planeAlignerLeft]
40 0.812531 -811.448792 -0.314951 0.000000 -90.000000 -90.001900 811.449280
41 0.812531 -811.448792 -0.314951 0.000000 -90.000000 -90.001900 811.449280
42 0.812531 -811.448792 -0.314951 0.000000 -90.000000 -90.001900 811.449280
[L_Toe1_02]
40 413.761139 0.000477 0.000000 0.001661 0.070897 0.001661 413.761139
41 413.761139 0.000477 0.000000 0.001661 0.070897 0.001661 413.761139
42 413.761139 0.000477 0.000000 0.001661 0.070897 0.001661 413.761139
[L_Toe1_03]
40 464.317322 0.000358 -0.000089 0.001673 -0.448396 -0.003292 464.317322
41 464.317322 0.000358 -0.000089 0.001673 -0.448396 -0.003292 464.317322
42 464.317322 0.000358 -0.000089 0.001673 -0.448396 -0.003292 464.317322
[L_Toe2_02]
40 342.235809 -0.000477 0.000238 0.004684 -81.237740 0.004684 342.235809
41 342.235809 -0.000477 0.000238 0.004684 -81.238052 0.004684 342.235809
42 342.235809 -0.000477 0.000238 0.004684 -81.238297 0.004684 342.235809
[L_Toe2_03]
40 420.210846 -0.000715 0.000000 179.993195 44.163803 -179.999222 420.210846
41 420.210846 -0.000715 0.000000 179.993195 44.163803 -179.999222 420.210846
42 420.210846 -0.000715 0.000000 179.993195 44.163803 -179.999222 420.210846
[L_Toe3_02]
40 329.270111 0.000954 0.000000 0.004675 -84.665344 0.004675 329.270111
41 329.270111 0.000954 0.000000 0.004675 -84.664803 0.004675 329.270111
42 329.270111 0.000954 0.000000 0.004675 -84.664139 0.004675 329.270111
[L_Toe3_03]
40 439.137451 -0.001907 0.000954 179.993454 37.691124 -179.998764 439.137451
41 439.137451 -0.001907 0.000954 179.993454 37.691124 -179.998764 439.137451
42 439.137451 -0.001907 0.000954 179.993454 37.691116 -179.998764 439.137451
[planeLockWeightLeft]
40 -0.000954 0.000238 -0.000305 -0.011826 -0.004376 0.005620 0.001029
41 -0.000954 0.000238 -0.000305 -0.011826 -0.004376 0.005620 0.001029
42 -0.000954 0.000238 -0.000305 -0.011826 -0.004376 0.005620 0.001029
[R_Leg01]
40 761.455627 -0.001907 -0.000358 82.191757 -24.314795 62.111084 761.455688
41 761.455627 -0.001907 -0.000358 86.867538 -20.890322 57.383835 761.455688
42 761.455627 -0.001907 -0.000358 95.178177 -16.886065 52.463795 761.455688
[R_Leg02]
40 1441.140625 0.000000 -0.000238 -2.348980 -1.016742 -125.092728 1441.140625
41 1441.140625 0.000000 -0.000238 -2.516704 -1.262152 -129.324203 1441.140625
42 1441.140625 0.000000 -0.000238 -2.621113 -1.451413 -132.692474 1441.140625
[R_Leg03]
40 1686.963989 0.000954 0.001431 0.120512 -0.076830 143.805206 1686.963989
41 1686.963989 0.000954 0.001431 0.131341 -0.085731 146.035599 1686.963989
42 1686.963989 0.000954 0.001431 0.136312 -0.090848 147.568344 1686.963989
[R_Foot]
40 3041.560059 -30.531288 -11.204481 -2.941549 -29.009022 45.621723 3041.734131
41 3041.560059 -30.531288 -11.204481 -4.858371 -25.022833 50.413605 3041.734131
42 3041.560059 -30.531288 -11.204481 -6.969381 -17.625345 54.931572 3041.734131
[planeAlignerRight]
40 -0.635147 -812.270569 -0.364304 0.000000 -89.960434 -90.005180 812.270874
41 -0.635147 -812.270569 -0.364304 0.000000 -89.960434 -90.005180 812.270874
42 -0.635147 -812.270569 -0.364304 0.000000 -89.960434 -90.005180 812.270874
[R_Toe1_01]
40 -188.383347 -224.864899 21.052242 77.219200 -2.887865 170.273743 294.101532
41 -188.383347 -224.864899 21.052242 77.239975 -2.934633 170.092743 294.101532
42 -188.383347 -224.864899 21.052242 77.260887 -2.981334 169.911697 294.101532
[R_Toe2_01]
40 200.637817 -220.002121 -148.787384 -84.828247 32.604565 -46.893314 332.857574
41 200.637817 -220.002121 -148.787384 -84.751915 32.598503 -46.758244 332.857574
42 200.637817 -220.002121 -148.787384 -84.675636 32.592285 -46.623211 332.857574
[R_Toe3_01]
40 188.606735 -220.092957 191.126343 -73.549583 -7.702516 -62.632431 347.192566
41 188.606735 -220.092957 191.126343 -73.541557 -7.742126 -62.502579 347.192566
42 188.606735 -220.092957 191.126343 -73.533623 -7.781763 -62.372723 347.192566
[planeLockWeightRight]
40 -0.000477 0.000000 0.000000 -0.011823 -0.004379 -0.000027 0.000477
41 -0.000477 0.000000 0.000000 -0.011823 -0.004379 -0.000027 0.000477
42 -0.000477 0.000000 0.000000 -0.011823 -0.004379 -0.000027 0.000477
[R_Toe1_02]
40 413.762085 0.000477 -0.000119 0.001463 -16.668289 0.001463 413.762085
41 413.762085 0.000477 -0.000119 0.001464 -16.614738 0.001464 413.762085
42 413.762085 0.000477 -0.000119 0.001464 -16.561190 0.001464 413.762085
[R_Toe1_03]
40 464.317810 0.000000 0.001088 -179.996002 78.543106 -179.992477 464.317810
41 464.317810 0.000000 0.001088 -179.996094 78.357307 -179.992569 464.317810
42 464.317810 0.000000 0.001088 -179.996185 78.171501 -179.992676 464.317810
[R_Toe2_02]
40 342.234741 -0.000954 0.000238 0.001230 -55.061161 0.001230 342.234741
41 342.234741 -0.000954 0.000238 0.001230 -55.095539 0.001230 342.234741
42 342.234741 -0.000954 0.000238 0.001230 -55.129929 0.001230 342.234741
[R_Toe2_03]
40 420.210846 0.000715 -0.000268 -0.003679 53.566940 0.000002 420.210846
41 420.210846 0.000715 -0.000268 -0.003681 53.613567 -0.000000 420.210846
42 420.210846 0.000715 -0.000268 -0.003683 53.660202 -0.000003 420.210846
[R_Toe3_02]
40 329.270355 -0.000477 -0.000954 0.001189 -71.766090 0.001189 329.270355
41 329.270355 -0.000477 -0.000954 0.001189 -71.804718 0.001189 329.270355
42 329.270355 -0.000477 -0.000954 0.001188 -71.843384 0.001188 329.270355
[R_Toe3_03]
40 439.137939 0.000238 0.001431 0.010440 77.090393 0.010440 439.137939
41 439.137939 0.000238 0.001431 0.010505 77.171013 0.010505 439.137939
42 439.137939 0.000238 0.001431 0.010571 77.251602 0.010571 439.137939
[Rear_Leg02]
40 1162.777710 -0.029802 0.005960 30.870001 45.382042 -49.892605 1162.777710
41 1162.777710 -0.029802 0.005960 38.332188 39.777702 -38.903820 1162.777710
42 1162.777710 -0.029802 0.005960 35.072697 37.540180 -40.901299 1162.777710
[Rear_Leg03]
40 607.192505 -0.013351 -0.073195 0.008718 0.003354 47.914810 607.192505
41 607.192505 -0.013351 -0.073195 0.003955 0.005544 42.800846 607.192505
42 607.192505 -0.013351 -0.073195 0.003956 0.005543 42.816673 607.192505
[Rear_Leg04]
40 995.874512 -0.020504 -0.011921 -0.033080 -0.014922 30.366377 995.874573
41 995.874512 -0.020504 -0.011921 -0.031076 -0.012149 23.080797 995.874573
42 995.874512 -0.020504 -0.011921 -0.031079 -0.012143 23.103374 995.874573
[Rear_Foot]
40 3096.176270 -0.067472 -0.041425 104.068619 41.329617 -47.833057 3096.176270
41 3096.176270 -0.067472 -0.041425 104.679039 41.087517 -44.473862 3096.176270
42 3096.176270 -0.067472 -0.041425 98.921333 44.828911 -56.925743 3096.176270
[planeAlignerCenter]
40 0.350077 0.966311 -838.790894 0.000009 0.000003 -179.999985 838.791565
41 0.350077 0.966311 -838.790894 0.000009 0.000003 -179.999985 838.791565
42 0.350077 0.966311 -838.790894 0.000009 0.000003 -179.999985 838.791565
[Rear_Toe1_01]
40 0.653352 83.966492 -371.173737 -30.746197 22.785063 86.610199 380.553192
41 0.653352 83.966492 -371.173737 -30.746510 22.784700 86.609741 380.553192
42 0.653352 83.966492 -371.173737 -17.532728 29.699442 92.211540 380.553192
[Rear_Toe2_01]
40 178.200760 -294.826019 -362.060547 -8.140367 -0.248296 -62.264484 499.765686
41 178.200760 -294.826019 -362.060547 -8.140479 -0.248575 -62.262230 499.765686
42 178.200760 -294.826019 -362.060547 -19.403255 27.886259 -67.701752 499.765686
[Rear_Toe3_01]
40 -153.359680 -308.780914 -362.060852 3.735731 13.493870 -102.742592 499.952881
41 -153.359680 -308.780914 -362.060852 3.735755 13.494431 -102.739845 499.952881
42 -153.359680 -308.780914 -362.060852 -7.778901 19.364405 -109.169266 499.952881
[planeLockWeightCenter]
40 -0.000062 0.000238 0.000000 -0.011814 -0.004373 -0.000015 0.000246
41 -0.000062 0.000238 0.000000 -0.011814 -0.004373 -0.000015 0.000246
42 -0.000062 0.000238 0.000000 -0.011814 -0.004373 -0.000015 0.000246
[Rear_Toe1_02]
40 379.707825 0.194073 0.000477 -0.006719 -30.019583 -0.006719 379.707855
41 379.707825 0.194073 0.000477 -0.006719 -30.019583 -0.006719 379.707855
42 379.707825 0.194073 0.000477 -0.002643 -33.020706 -0.002643 379.707855
[Rear_Toe1_03]
40 500.129700 0.165701 0.000119 -179.994812 70.641991 -179.998352 500.129761
41 500.129700 0.165701 0.000119 -179.994812 70.644661 -179.998352 500.129761
42 500.129700 0.165701 0.000119 -0.021156 87.124443 -0.024654 500.129761
[Rear_Toe2_02]
40 340.494507 0.000238 -0.000954 0.001661 0.061153 0.001661 340.494507
41 340.494507 0.000238 -0.000954 0.001661 0.061007 0.001661 340.494507
42 340.494507 0.000238 -0.000954 0.001259 -47.461246 0.001259 340.494507
[Rear_Toe2_03]
40 433.103577 0.000000 0.000238 -0.003297 -0.804494 0.001683 433.103546
41 433.103577 0.000000 0.000238 -0.003297 -0.804494 0.001683 433.103546
42 433.103577 0.000000 0.000238 -0.003319 41.591148 0.000515 433.103546
[Rear_Toe3_02]
40 340.494141 -0.000358 -0.000477 -0.002600 -36.654480 -0.002600 340.494171
41 340.494141 -0.000358 -0.000477 -0.002600 -36.654480 -0.002600 340.494171
42 340.494141 -0.000358 -0.000477 -0.002390 -62.798645 -0.002390 340.494171
[Rear_Toe3_03]
40 433.103577 0.001431 -0.000238 0.006396 30.714855 -0.001650 433.103546
41 433.103577 0.001431 -0.000238 0.006396 30.714851 -0.001650 433.103546
42 433.103577 0.001431 -0.000238 -0.000391 59.750126 -0.004014 433.103546
[Back_Bone]
40 1312.175781 -701.934692 0.000954 5.870928 -11.185030 -88.125641 1488.125488
41 1312.175781 -701.934692 0.000954 4.810192 -9.360206 -86.517883 1488.125488
42 1312.175781 -701.934692 0.000954 2.578300 -7.653044 -84.904266 1488.125488
[Head]
40 1406.159424 809.709290 0.001431 2.255127 0.085332 20.814384 1622.625488
41 1406.159424 809.709290 0.001431 3.112182 0.965595 18.999817 1622.625488
42 1406.159424 809.709290 0.001431 3.565004 1.417223 17.607285 1622.625488
[Motor_Bone]
40 1158.364380 -417.834747 0.000477 -3.166448 -10.066663 -110.723495 1231.419434
41 1158.364380 -417.834747 0.000477 -2.293333 -6.976522 -111.448715 1231.419434
42 1158.364380 -417.834747 0.000477 -2.138025 -1.880554 -112.393028 1231.419434
[Ping_Mechanism]
40 1225.926147 -429.040009 39.224140 0.000103 -0.000053 82.120995 1299.426392
41 1217.723511 -424.190460 49.476200 0.000103 -0.000053 82.120995 1290.440186
42 1209.520874 -419.340942 59.728157 0.000103 -0.000053 82.120995 1281.543945
[BN_LookIK]
40 193.241119 1380.371704 -0.002861 0.000000 89.965736 -31.038179 1393.832153
41 193.241119 1380.371704 -0.002861 0.000000 89.965736 -31.038179 1393.832153
42 193.241119 1380.371704 -0.002861 0.000000 89.965736 -31.038179 1393.832153
[bottomMouth]
40 -435.092926 615.759399 -0.000954 -0.000022 0.000016 73.527184 753.966492
41 -435.092926 615.759399 -0.000954 -0.000022 0.000016 73.527184 753.966492
42 -435.092926 615.759399 -0.000954 -0.000022 0.000016 73.527184 753.966492
[L_Mouth01]
40 554.440979 7.658243 838.222046 150.204178 23.759130 109.605339 1005.027161
41 554.440979 7.658243 838.222046 150.204178 23.759130 109.605339 1005.027161
42 554.440979 7.658243 838.222046 150.204178 23.759130 109.605339 1005.027161
[L_mouthFront]
40 551.629089 934.514771 339.150421 0.000081 2.804060 79.119301 1136.941284
41 551.629089 934.514771 339.150421 0.000081 2.804060 79.119301 1136.941284
42 551.629089 934.514771 339.150421 0.000081 2.804060 79.119301 1136.941284
[mouthGun]
40 55.332661 1627.420898 0.000000 0.000023 0.000009 -11.038128 1628.361328
41 55.332661 1627.420898 0.000000 0.000023 0.000009 -11.038128 1628.361328
42 55.332661 1627.420898 0.000000 0.000023 0.000009 -11.038128 1628.361328
[R_Mouth01]
40 554.442383 7.659197 -838.223938 29.795891 -23.759109 109.605331 1005.029541
41 554.442383 7.659197 -838.223938 29.795891 -23.759109 109.605331 1005.029541
42 554.442383 7.659197 -838.223938 29.795891 -23.759109 109.605331 1005.029541
[R_mouthFront]
40 551.629089 934.514282 -339.151367 0.000029 -2.803930 79.119133 1136.941162
41 551.629089 934.514282 -339.151367 0.000029 -2.803930 79.119133 1136.941162
42 551.629089 934.514282 -339.151367 0.000029 -2.803930 79.119133 1136.941162
[TopMouth]
40 461.269867 -56.106091 -0.008583 -0.000059 -0.000268 92.025169 464.669525
41 461.269867 -56.106091 -0.008583 -0.000059 -0.000268 92.025169 464.669525
42 461.269867 -56.106091 -0.008583 -0.000059 -0.000268 92.025169 464.669525
[weapon_bone]
40 -987.239868 1448.372803 0.001431 0.000000 89.965736 -31.038221 1752.833740
41 -987.239868 1448.372803 0.001431 0.000000 89.965736 -31.038221 1752.833740
42 -987.239868 1448.372803 0.001431 0.000000 89.965736 -31.038221 1752.833740
